<svg width="944" height="574" viewBox="0 0 944 574" fill="none" xmlns="http://www.w3.org/2000/svg">
<g clip-path="url(#clip0)">
<path d="M733.916 571C734.064 566.567 734.16 562.122 734.16 557.605C734.16 344.106 569.813 171 367.084 171C164.356 171 0 344.106 0 557.653C0 562.122 0.0959766 566.567 0.244304 571.049L733.916 571Z" fill="#CCCCCC"/>
<path d="M943.817 571C943.921 567.87 944 564.729 944 561.575C944 410.742 821.281 288.466 669.899 288.466C518.518 288.466 395.799 410.742 395.799 561.575C395.799 564.729 395.869 567.87 395.982 571H943.817Z" fill="#EFEFEF"/>
<g clip-path="url(#clip1)">
<path d="M321.937 483H208.518V558H321.937V483Z" fill="#B37361"/>
<path d="M280.006 463.673C281.149 463.543 287.888 463.193 288.923 461.913C290.802 459.593 288.564 442.703 287.846 441.983C287.128 441.263 285.692 440.983 285.341 441.683C284.99 442.383 284.372 449.323 283.913 450.303C283.454 451.283 277.467 453.553 275.914 453.233" fill="#1F161E"/>
<path d="M257.511 478.463C258.496 479.153 264.191 483.513 265.644 483.183C268.29 482.573 274.578 467.183 274.336 466.183C274.094 465.183 273.083 463.833 272.432 464.183C271.781 464.533 267.965 469.753 267.121 470.233C266.278 470.713 260.291 468.453 259.172 467.123" fill="#1F161E"/>
<path d="M16.9251 561.333C16.3155 564.013 13.2094 571.123 15.0964 582.493C19.1628 597.673 27.6881 600.243 31.5457 598.053C35.4034 595.863 25.2749 580.793 25.8594 562.553" fill="#F8CDBA"/>
<path d="M139.184 422.733C154.698 416.943 262.537 457.013 264.474 459.553C266.411 462.093 258.629 480.853 255.774 480.853C252.918 480.853 213.815 466.953 213.815 466.953L79.3823 514.423C84.6678 505.163 120.848 429.593 139.184 422.733Z" fill="#1F161E"/>
<path d="M152.076 424.053C157.601 424.053 162.08 419.652 162.08 414.223C162.08 408.794 157.601 404.393 152.076 404.393C146.552 404.393 142.073 408.794 142.073 414.223C142.073 419.652 146.552 424.053 152.076 424.053Z" fill="#F8CDBA"/>
<path d="M41.5488 524.693C45.8323 548.613 52.1949 563.453 62.9746 566.013C95.0298 572.493 162.856 511.013 172.467 501.713C181.652 499.043 279.871 466.183 280.573 464.843C281.274 463.503 278.477 453.333 276.673 452.503C274.87 451.673 182.253 460.013 177.902 461.013C162.647 463.483 70.1305 488.313 41.5488 524.693Z" fill="#AB8FE2"/>
<path d="M29.5419 381.263C29.7005 383.033 41.7076 381.453 41.549 379.683L39.879 361.783L27.9053 363.353L29.5419 381.263Z" fill="#F8CDBA"/>
<path d="M37.0735 367.703C35.9045 367.863 28.7236 372.813 28.9741 375.023L27.9053 363.353C29.7673 363.113 37.0735 367.703 37.0735 367.703Z" fill="#1F161E"/>
<path d="M37.1236 368.843C46.4803 368.843 54.0655 359.759 54.0655 348.553C54.0655 337.347 46.4803 328.263 37.1236 328.263C27.7668 328.263 20.1816 337.347 20.1816 348.553C20.1816 359.759 27.7668 368.843 37.1236 368.843Z" fill="#F8CDBA"/>
<path d="M53.3982 352.479C55.0301 352.265 56.2779 351.269 56.1852 350.253C56.0925 349.237 54.6943 348.587 53.0624 348.801C51.4304 349.015 50.1826 350.011 50.2753 351.027C50.3681 352.042 51.7662 352.693 53.3982 352.479Z" fill="#FA9E9F"/>
<path d="M34.8508 354.918C36.4828 354.705 37.7306 353.708 37.6379 352.692C37.5451 351.677 36.147 351.027 34.515 351.24C32.883 351.454 31.6352 352.451 31.728 353.466C31.8207 354.482 33.2188 355.132 34.8508 354.918Z" fill="#FA9E9F"/>
<path d="M45.6821 347.783C46.3167 348.643 49.5147 352.233 46.6841 354.223" stroke="#1F161E" stroke-width="1.2" stroke-miterlimit="10" stroke-linecap="round"/>
<path d="M41.1399 359.633C40.2549 359.713 38.7686 358.633 37.9336 357.513" stroke="#1F161E" stroke-width="1.2" stroke-miterlimit="10" stroke-linecap="round"/>
<path d="M32.9318 321.693C28.6149 323.223 15.1799 325.203 11.4141 323.673C10.4288 325.143 7.40618 333.083 5.99505 342.433L14.2614 346.343L5.53581 346.133C4.99145 350.888 5.18679 355.723 6.11195 360.393C10.195 365.473 16.9668 364.883 18.1608 364.473C25.7091 361.813 23.605 347.013 26.6109 343.523C31.7127 337.523 41.5823 341.053 50.4749 335.853C50.6586 329.903 43.2689 318.013 32.9318 321.693Z" fill="#1F161E"/>
<path d="M21.7598 357.603C23.9226 357.603 25.6759 355.503 25.6759 352.913C25.6759 350.323 23.9226 348.223 21.7598 348.223C19.597 348.223 17.8438 350.323 17.8438 352.913C17.8438 355.503 19.597 357.603 21.7598 357.603Z" fill="#F8CDBA"/>
<path d="M10.3623 403.173C17.8522 375.013 56.5038 374.413 63.4425 377.333C70.3813 380.253 87.2648 429.223 89.895 430.123C92.5252 431.023 142.224 405.413 143.535 406.313C144.846 407.213 149.38 425.183 148.595 427.653C147.81 430.123 90.0787 457.753 88.1999 458.013C88.7677 461.613 95.3307 484.303 94.0449 488.113C92.759 491.923 61.0294 522.263 41.5742 524.733C38.2843 525.103 33.6251 498.013 33.6251 498.013C33.6251 503.403 31.5627 563.603 30.2434 564.273C28.9241 564.943 14.6792 567.193 13.3683 565.403C12.0573 563.613 9.41043 406.703 10.3623 403.173Z" fill="#FADB93"/>
<path d="M33.8086 498.413L42.8098 410.133" stroke="#1F161E" stroke-width="0.55" stroke-miterlimit="10" stroke-linecap="round"/>
<path d="M94.0194 488.073C92.3494 471.003 81.4946 428.323 80.5093 424.153" stroke="#1F161E" stroke-width="0.55" stroke-miterlimit="10" stroke-linecap="round"/>
</g>
</g>
<g clip-path="url(#clip2)">
<path d="M477.785 138.96C477.785 135.464 475.312 132.63 472.262 132.63C469.212 132.63 466.739 135.464 466.739 138.96V160.81C466.739 164.306 469.212 167.14 472.262 167.14C475.312 167.14 477.785 164.306 477.785 160.81V138.96Z" fill="black"/>
<path d="M472.262 203.87C478.381 203.87 483.342 198.184 483.342 191.17C483.342 184.156 478.381 178.47 472.262 178.47C466.142 178.47 461.182 184.156 461.182 191.17C461.182 198.184 466.142 203.87 472.262 203.87Z" fill="#FBDC8E"/>
<path d="M472.262 152.88C467.874 152.879 463.529 153.868 459.475 155.792C455.421 157.715 451.737 160.536 448.634 164.091C445.531 167.647 443.07 171.869 441.39 176.515C439.711 181.161 438.847 186.141 438.847 191.17H505.668C505.668 186.142 504.804 181.163 503.125 176.517C501.447 171.871 498.986 167.65 495.884 164.095C492.782 160.539 489.099 157.719 485.046 155.795C480.993 153.87 476.649 152.88 472.262 152.88V152.88Z" fill="#AB8DE5"/>
<path d="M472.262 139.92V1" stroke="black" stroke-width="2" stroke-linecap="round" stroke-linejoin="round"/>
</g>
<path d="M705.615 297.54C703.674 297.54 686.794 304.99 689.539 324.89C690.256 330.83 694.225 333.62 695.658 333.39C697.092 333.16 704.207 308.62 707.258 309.39C710.309 310.16 705.615 297.54 705.615 297.54Z" fill="#F8CDBA"/>
<path d="M844.078 443.23C840.188 454.35 752.512 444.67 749.767 448.78C747.023 452.89 733.946 552.56 732.259 554C730.571 555.44 717.905 554 716.008 552.55C714.111 551.1 715.379 434.04 717.905 430.18C720.431 426.32 759.051 397.36 806.306 399.05C853.562 400.74 844.078 443.23 844.078 443.23Z" fill="#1F161E"/>
<path d="M754.706 284.14C769.496 272.59 823.361 244.14 829.672 247.62C851.525 259.79 864.462 391.04 861.569 402.18C858.676 413.32 785.764 381.7 785.764 381.7C785.764 381.7 784.444 313.7 785.502 305.22C779.444 307.03 752.862 313.05 706.008 311.22C704.535 308.643 703.666 305.676 703.486 302.604C703.305 299.533 703.818 296.459 704.977 293.68C711.541 290.56 746.061 286.05 754.706 284.14Z" fill="#73E5E2"/>
<path d="M728.674 548C729.312 549.47 733.429 557.9 732.966 560C732.092 563.74 715.658 571.6 714.539 571.17C713.42 570.74 712.188 569.17 712.634 568.31C713.079 567.45 718.753 562.31 719.347 561.17C719.941 560.03 719.53 555.7 718.228 554" fill="#1F161E"/>
<path d="M751.848 421.41C751.708 423.04 751.245 432.68 749.89 434.15C747.442 436.8 729.846 433.37 729.094 432.33C728.343 431.29 728.028 429.23 728.823 428.75C729.619 428.27 736.813 427.46 737.836 426.81C738.858 426.16 740.546 422.3 740.231 420.07" fill="#332832"/>
<path d="M811.569 256.55C811.49 259.36 825.048 260.04 825.127 257.02L825.607 238.16L812.049 237.69L811.569 256.55Z" fill="#F8CDBA"/>
<path d="M813.186 244.1C822.919 244.1 830.809 235.074 830.809 223.94C830.809 212.806 822.919 203.78 813.186 203.78C803.453 203.78 795.563 212.806 795.563 223.94C795.563 235.074 803.453 244.1 813.186 244.1Z" fill="#F8CDBA"/>
<path d="M798.258 226.136C798.283 225.17 796.989 224.341 795.368 224.285C793.747 224.229 792.412 224.967 792.386 225.933C792.361 226.899 793.654 227.728 795.276 227.784C796.897 227.84 798.232 227.102 798.258 226.136Z" fill="#FA9E9F"/>
<path d="M816.726 226.774C816.752 225.808 815.458 224.98 813.837 224.924C812.215 224.868 810.88 225.606 810.855 226.572C810.829 227.538 812.123 228.366 813.744 228.422C815.366 228.478 816.701 227.74 816.726 226.774Z" fill="#FA9E9F"/>
<path d="M802.575 222.64C802.006 223.52 799.078 227.19 802.024 228.81" stroke="#1F161E" stroke-width="0.69" stroke-miterlimit="10" stroke-linecap="round"/>
<path d="M807.827 233.42C808.701 233.42 810.109 232.24 810.86 231.13" stroke="#1F161E" stroke-width="0.69" stroke-miterlimit="10" stroke-linecap="round"/>
<path d="M829.236 232.28C831.613 229.72 832.925 206.45 830.809 204.44C829.3 203.186 827.472 202.536 825.608 202.59C825.608 202.59 808.877 183 801.657 183C794.436 183 795.311 188 795.311 190.53C795.311 193.06 797.295 208.86 800.022 210.53C801.562 208.658 803.357 207.084 805.337 205.87C806.368 207.41 815.625 217.76 824.017 220.81C826.369 225.4 829.236 232.28 829.236 232.28Z" fill="black"/>
<path d="M809.734 302.29C803.886 303.37 786.359 306.17 786.359 306.17" stroke="#1F161E" stroke-width="0.55" stroke-miterlimit="10" stroke-linecap="round"/>
<path d="M834.891 447.47C855.546 447.47 861.989 421.88 861.989 402.38C861.989 392.12 772.915 308.66 765.546 308.66C743.797 308.66 737.232 415.39 737.232 419.93C737.232 424.47 752.416 424.62 754.06 423.84C755.152 420.4 768.693 374.08 768.693 374.08C770.458 377.68 799.182 447.47 834.891 447.47Z" fill="#55B79D"/>
<path d="M826.218 474.9C853.684 474.9 875.949 468.654 875.949 460.95C875.949 453.246 853.684 447 826.218 447C798.753 447 776.488 453.246 776.488 460.95C776.488 468.654 798.753 474.9 826.218 474.9Z" fill="black"/>
<path d="M826.219 460.95L798.276 571.89" stroke="black" stroke-width="4" stroke-miterlimit="10" stroke-linecap="round"/>
<path d="M826.218 460.95L854.152 571.89" stroke="black" stroke-width="4" stroke-miterlimit="10" stroke-linecap="round"/>
<path d="M807.448 535.47L838.598 510.13" stroke="black" stroke-width="2" stroke-miterlimit="10" stroke-linecap="round"/>
<path d="M813.713 510.13L844.854 535.47" stroke="black" stroke-width="2" stroke-miterlimit="10" stroke-linecap="round"/>
<defs>
<clipPath id="clip0">
<rect width="944" height="400" fill="white" transform="translate(0 171)"/>
</clipPath>
<clipPath id="clip1">
<rect width="297.186" height="277.72" fill="white" transform="translate(0 293)"/>
</clipPath>
<clipPath id="clip2">
<rect width="66.8216" height="203.87" fill="white" transform="translate(438.847)"/>
</clipPath>
</defs>
</svg>
